<svg id="visual" width="900" height="600" xmlns="http://www.w3.org/2000/svg" xmlns:xlink="http://www.w3.org/1999/xlink" version="1.1"><rect x="0" y="0" width="900" height="600"></rect><path d="M0 136L21.5 130C43 124 86 112 128.8 104.5C171.7 97 214.3 94 257.2 89.3C300 84.7 343 78.3 385.8 90.5C428.7 102.7 471.3 133.3 514.2 140.8C557 148.3 600 132.7 642.8 116C685.7 99.3 728.3 81.7 771.2 79.8C814 78 857 92 878.5 99L900 106L900 0L878.5 0C857 0 814 0 771.2 0C728.3 0 685.7 0 642.8 0C600 0 557 0 514.2 0C471.3 0 428.7 0 385.8 0C343 0 300 0 257.2 0C214.3 0 171.7 0 128.8 0C86 0 43 0 21.5 0L0 0Z" fill="#0691b6"></path><path d="M0 77L21.5 74.8C43 72.7 86 68.3 128.8 71.3C171.7 74.3 214.3 84.7 257.2 85.7C300 86.7 343 78.3 385.8 83.2C428.7 88 471.3 106 514.2 111.2C557 116.3 600 108.7 642.8 97C685.7 85.3 728.3 69.7 771.2 64.8C814 60 857 66 878.5 69L900 72L900 0L878.5 0C857 0 814 0 771.2 0C728.3 0 685.7 0 642.8 0C600 0 557 0 514.2 0C471.3 0 428.7 0 385.8 0C343 0 300 0 257.2 0C214.3 0 171.7 0 128.8 0C86 0 43 0 21.5 0L0 0Z" fill="#005dae"></path><path d="M0 16L21.5 26C43 36 86 56 128.8 54.5C171.7 53 214.3 30 257.2 18C300 6 343 5 385.8 14.7C428.7 24.3 471.3 44.7 514.2 52.5C557 60.3 600 55.7 642.8 53.2C685.7 50.7 728.3 50.3 771.2 53.2C814 56 857 62 878.5 65L900 68L900 0L878.5 0C857 0 814 0 771.2 0C728.3 0 685.7 0 642.8 0C600 0 557 0 514.2 0C471.3 0 428.7 0 385.8 0C343 0 300 0 257.2 0C214.3 0 171.7 0 128.8 0C86 0 43 0 21.5 0L0 0Z" fill="#450f80"></path></svg>